<svg xmlns="http://www.w3.org/2000/svg" viewBox="0 0 64 64">
  <rect width="64" height="64" rx="16" fill="#1f4fd1" />
  <path
    d="M18 16h20c6.627 0 12 5.373 12 12v18c0 1.105-.895 2-2 2H28c-6.627 0-12-5.373-12-12V18c0-1.105.895-2 2-2Z"
    fill="#f8fafc"
  />
  <path
    d="M28 24h14a2 2 0 1 1 0 4H28a2 2 0 1 1 0-4Zm0 8h14a2 2 0 1 1 0 4H28a2 2 0 1 1 0-4Zm0 8h9a2 2 0 1 1 0 4h-9a2 2 0 1 1 0-4Z"
    fill="#1f4fd1"
  />
  <path
    d="M22 20a6 6 0 0 1 6-6h10.5a2 2 0 0 1 0 4H28a2 2 0 0 0-2 2v18a2 2 0 0 0 2 2h14.5a2 2 0 0 1 0 4H28a6 6 0 0 1-6-6V20Z"
    fill="#7aa2ff"
  />
</svg>
